<?xml version="1.0" standalone="no"?>
<!DOCTYPE svg PUBLIC "-//W3C//DTD SVG 20010904//EN"
 "http://www.w3.org/TR/2001/REC-SVG-20010904/DTD/svg10.dtd">
<svg version="1.0" xmlns="http://www.w3.org/2000/svg"
 width="1200.000000pt" height="675.000000pt" viewBox="0 0 1200.000000 675.000000"
 preserveAspectRatio="xMidYMid meet">

<g transform="translate(0.000000,675.000000) scale(0.100000,-0.100000)"
fill="#000000" stroke="none">
<path d="M0 3375 l0 -3375 6000 0 6000 0 0 3375 0 3375 -6000 0 -6000 0 0
-3375z m3325 776 c159 -39 288 -114 403 -235 313 -330 306 -837 -17 -1156
-324 -321 -839 -322 -1161 -1 -127 126 -203 269 -236 439 -80 419 191 842 611
952 99 26 292 27 400 1z m4985 -548 l0 -147 28 26 c63 61 184 58 222 -5 18
-28 20 -51 20 -194 0 -174 7 -213 40 -213 11 0 20 -7 20 -15 0 -12 -20 -15
-120 -15 -100 0 -120 3 -120 15 0 8 7 15 15 15 30 0 36 39 33 211 -3 157 -5
172 -23 185 -24 18 -62 11 -90 -17 -18 -18 -20 -33 -20 -192 0 -169 0 -172 23
-182 12 -5 22 -15 22 -22 0 -10 -30 -13 -120 -13 -90 0 -120 3 -120 13 0 7 10
17 23 22 l22 10 0 305 0 305 -22 10 c-46 20 -25 34 55 38 42 1 85 4 95 5 15 2
17 -11 17 -145z m-362 68 c51 -26 58 -26 65 0 3 12 11 19 18 17 8 -3 11 -33
10 -103 -3 -138 -15 -149 -45 -43 -19 67 -60 113 -109 122 -95 18 -153 -79
-92 -152 14 -16 65 -57 114 -90 104 -72 146 -117 161 -171 24 -88 -33 -181
-129 -209 -60 -19 -159 -15 -210 8 -55 25 -67 25 -74 -1 -3 -12 -10 -18 -16
-14 -14 8 -15 241 -2 250 13 8 27 -21 35 -74 13 -84 59 -139 125 -148 113 -15
168 89 95 177 -14 17 -67 58 -116 92 -132 90 -169 161 -133 253 38 101 190
144 303 86z m-3423 -202 l89 -211 46 118 c25 66 61 161 80 212 l34 92 108 0
c104 0 138 -10 81 -25 -15 -3 -31 -12 -35 -18 -12 -19 -10 -525 2 -548 6 -11
21 -19 35 -19 16 0 25 -6 25 -15 0 -13 -23 -15 -145 -15 -122 0 -145 2 -145
15 0 9 9 15 24 15 44 0 47 13 44 266 l-3 239 -101 -265 c-56 -146 -107 -265
-113 -265 -7 0 -63 120 -124 267 l-112 267 -3 -230 c-1 -149 1 -237 8 -250 6
-11 24 -22 41 -26 16 -3 29 -12 29 -19 0 -11 -20 -14 -90 -14 -70 0 -90 3 -90
14 0 8 11 17 24 20 13 3 27 14 32 23 10 22 18 463 9 511 -5 26 -13 37 -36 45
-16 6 -29 15 -29 19 0 4 51 8 114 8 l113 0 88 -211z m1155 204 c0 -3 -7 -15
-16 -25 -16 -16 -13 -28 36 -173 28 -85 60 -176 70 -201 l17 -47 30 84 c59
163 59 157 29 247 -17 51 -35 86 -49 95 -12 8 -19 18 -16 21 4 4 67 5 140 4
l134 -3 -37 -18 c-21 -9 -38 -20 -38 -24 0 -6 104 -329 126 -393 3 -8 21 35
40 95 54 173 65 222 62 263 -3 32 -8 40 -43 57 l-40 20 94 3 c51 1 96 1 99 -2
2 -3 -9 -21 -26 -41 -31 -35 -40 -60 -163 -458 l-43 -138 -35 3 -34 3 -61 182
c-34 100 -63 184 -66 187 -3 3 -34 -80 -69 -185 l-63 -190 -35 3 -35 3 -104
290 c-78 218 -110 295 -129 312 -14 12 -25 25 -25 28 0 3 56 5 125 5 69 0 125
-3 125 -7z m1800 -88 l0 -75 50 0 c28 0 50 -4 50 -10 0 -5 -22 -10 -50 -10
l-50 0 0 -199 c0 -172 2 -200 16 -205 20 -8 51 9 65 35 7 15 14 18 21 11 16
-16 -26 -77 -62 -92 -46 -19 -117 -7 -149 24 l-26 26 -3 200 -3 200 -40 0
c-21 0 -39 5 -39 10 0 6 18 10 40 10 l40 0 0 60 c0 59 1 60 28 61 15 0 43 6
62 13 19 8 38 14 43 15 4 0 7 -33 7 -74z m-891 -78 c13 -7 34 -25 45 -40 19
-26 21 -45 24 -209 l4 -180 23 6 c13 3 26 2 30 -4 7 -12 -31 -36 -72 -45 -32
-6 -103 10 -103 23 0 4 -4 13 -9 21 -7 12 -14 10 -36 -7 -15 -12 -45 -27 -66
-32 -67 -18 -119 6 -145 67 -32 74 15 134 143 183 44 17 84 38 87 46 3 9 6 40
6 70 0 63 -23 94 -67 94 -45 0 -57 -13 -33 -35 30 -27 27 -78 -6 -104 -15 -12
-34 -21 -44 -21 -33 0 -70 39 -70 75 0 42 53 91 107 100 21 4 43 8 48 11 17 6
109 -7 134 -19z m563 1 c40 -20 48 -60 48 -227 0 -172 7 -211 40 -211 11 0 20
-6 20 -14 0 -11 -25 -13 -120 -13 -95 0 -120 2 -120 13 0 8 7 14 15 14 28 0
35 39 35 197 0 176 -8 206 -53 211 -20 2 -36 -5 -57 -27 l-30 -30 2 -168 c3
-163 4 -168 26 -178 12 -5 22 -15 22 -21 0 -13 -237 -16 -245 -3 -3 4 7 14 22
21 l28 13 3 187 c3 192 0 206 -40 221 -26 9 -1 14 90 20 l92 6 0 -32 0 -31 28
27 c44 42 138 54 194 25z m1868 -11 c36 -19 51 -35 74 -81 26 -50 30 -68 29
-139 -1 -162 -74 -246 -214 -247 -150 0 -229 82 -229 240 0 105 14 147 65 197
70 67 179 78 275 30z m536 14 c80 -36 109 -104 102 -241 -5 -98 -26 -149 -82
-198 -49 -43 -136 -55 -198 -28 -16 7 -18 2 -18 -41 0 -57 20 -90 55 -95 14
-2 25 -7 25 -13 0 -14 -270 -19 -270 -5 0 6 11 15 24 19 32 13 36 41 36 280 0
247 -4 279 -36 292 -43 16 -25 29 41 31 141 4 130 6 127 -27 l-4 -30 25 23
c25 23 88 51 117 51 8 0 33 -8 56 -18z m-4318 -13 c-3 -7 -17 -14 -31 -16 -15
-2 -27 -8 -27 -13 0 -5 25 -70 57 -145 l56 -136 29 79 c43 119 50 147 38 177
-5 15 -21 31 -35 36 -48 18 -26 30 55 30 80 0 94 -6 64 -30 -24 -21 -32 -40
-124 -297 -48 -133 -94 -253 -103 -267 -47 -72 -197 -49 -197 31 0 51 57 79
115 57 27 -11 38 -53 20 -80 -12 -19 -13 -24 -2 -24 19 0 43 29 61 71 15 36
15 36 -84 260 -65 146 -108 231 -125 244 -14 12 -25 24 -25 28 0 4 59 7 131 7
100 0 130 -3 127 -12z"/>
<path d="M3025 4091 c-376 -60 -645 -370 -645 -742 0 -119 24 -220 81 -338 43
-87 63 -116 132 -186 130 -130 292 -210 453 -222 l72 -6 -10 44 c-26 114 63
235 181 247 92 8 179 -44 216 -130 11 -24 20 -45 21 -47 6 -7 102 70 145 116
86 92 142 189 180 313 19 60 23 99 24 195 0 113 -19 245 -35 245 -4 0 -10 -19
-13 -41 -12 -88 -63 -166 -193 -295 -79 -79 -126 -134 -135 -157 l-13 -37
-173 0 -173 0 0 33 c0 66 45 134 177 268 70 71 135 144 145 162 27 50 23 119
-7 155 -48 57 -169 62 -251 11 -34 -21 -76 -71 -95 -113 -7 -14 -16 -26 -21
-26 -7 0 -283 154 -296 165 -11 9 59 116 113 174 100 105 224 164 375 178 l75
7 -50 13 c-65 16 -216 24 -280 14z"/>
<path d="M6468 3265 c-37 -27 -49 -43 -54 -72 -13 -70 37 -115 85 -76 20 16
22 26 19 100 l-3 82 -47 -34z"/>
<path d="M8861 3475 c-29 -37 -36 -82 -35 -215 0 -99 4 -121 23 -158 20 -39
25 -43 54 -40 48 5 67 47 74 161 7 120 -3 197 -31 239 -28 43 -58 47 -85 13z"/>
<path d="M9393 3456 l-28 -24 0 -178 0 -178 28 -10 c39 -14 76 8 101 58 27 56
34 204 12 279 -23 80 -61 97 -113 53z"/>
</g>
</svg>
